<svg width="498" height="97" viewBox="0 0 498 97" fill="none" xmlns="http://www.w3.org/2000/svg">
<path d="M55.1818 25.1818C54.6364 20.5758 52.4242 17 48.5455 14.4545C44.6667 11.9091 39.9091 10.6364 34.2727 10.6364C30.1515 10.6364 26.5455 11.303 23.4545 12.6364C20.3939 13.9697 18 15.803 16.2727 18.1364C14.5758 20.4697 13.7273 23.1212 13.7273 26.0909C13.7273 28.5758 14.3182 30.7121 15.5 32.5C16.7121 34.2576 18.2576 35.7273 20.1364 36.9091C22.0152 38.0606 23.9848 39.0151 26.0455 39.7727C28.1061 40.5 30 41.0909 31.7273 41.5455L41.1818 44.0909C43.6061 44.7273 46.303 45.6061 49.2727 46.7273C52.2727 47.8485 55.1364 49.3788 57.8636 51.3182C60.6212 53.2273 62.8939 55.6818 64.6818 58.6818C66.4697 61.6818 67.3636 65.3636 67.3636 69.7273C67.3636 74.7576 66.0455 79.303 63.4091 83.3636C60.803 87.4242 56.9848 90.6515 51.9545 93.0455C46.9545 95.4394 40.8788 96.6364 33.7273 96.6364C27.0606 96.6364 21.2879 95.5606 16.4091 93.4091C11.5606 91.2576 7.74242 88.2576 4.95455 84.4091C2.19697 80.5606 0.636364 76.0909 0.272727 71H11.9091C12.2121 74.5152 13.3939 77.4242 15.4545 79.7273C17.5455 82 20.1818 83.697 23.3636 84.8182C26.5758 85.9091 30.0303 86.4545 33.7273 86.4545C38.0303 86.4545 41.8939 85.7576 45.3182 84.3636C48.7424 82.9394 51.4545 80.9697 53.4545 78.4545C55.4545 75.9091 56.4545 72.9394 56.4545 69.5455C56.4545 66.4545 55.5909 63.9394 53.8636 62C52.1364 60.0606 49.8636 58.4848 47.0455 57.2727C44.2273 56.0606 41.1818 55 37.9091 54.0909L26.4545 50.8182C19.1818 48.7273 13.4242 45.7424 9.18182 41.8636C4.93939 37.9848 2.81818 32.9091 2.81818 26.6364C2.81818 21.4242 4.22727 16.8788 7.04545 13C9.89394 9.09091 13.7121 6.0606 18.5 3.90909C23.3182 1.72727 28.697 0.63636 34.6364 0.63636C40.6364 0.63636 45.9697 1.71212 50.6364 3.86363C55.303 5.98484 59 8.89393 61.7273 12.5909C64.4849 16.2879 65.9394 20.4848 66.0909 25.1818H55.1818ZM85.8977 95V1.90909H97.1705V43.3636H146.807V1.90909H158.08V95H146.807V53.3636H97.1705V95H85.8977ZM259.193 48.4545C259.193 58.2727 257.42 66.7576 253.875 73.9091C250.33 81.0606 245.466 86.5758 239.284 90.4545C233.102 94.3333 226.042 96.2727 218.102 96.2727C210.163 96.2727 203.102 94.3333 196.92 90.4545C190.739 86.5758 185.875 81.0606 182.33 73.9091C178.784 66.7576 177.011 58.2727 177.011 48.4545C177.011 38.6364 178.784 30.1515 182.33 23C185.875 15.8485 190.739 10.3333 196.92 6.45454C203.102 2.57575 210.163 0.63636 218.102 0.63636C226.042 0.63636 233.102 2.57575 239.284 6.45454C245.466 10.3333 250.33 15.8485 253.875 23C257.42 30.1515 259.193 38.6364 259.193 48.4545ZM248.284 48.4545C248.284 40.3939 246.936 33.5909 244.239 28.0455C241.572 22.5 237.951 18.303 233.375 15.4545C228.83 12.6061 223.739 11.1818 218.102 11.1818C212.466 11.1818 207.36 12.6061 202.784 15.4545C198.239 18.303 194.617 22.5 191.92 28.0455C189.254 33.5909 187.92 40.3939 187.92 48.4545C187.92 56.5151 189.254 63.3182 191.92 68.8636C194.617 74.4091 198.239 78.6061 202.784 81.4545C207.36 84.303 212.466 85.7273 218.102 85.7273C223.739 85.7273 228.83 84.303 233.375 81.4545C237.951 78.6061 241.572 74.4091 244.239 68.8636C246.936 63.3182 248.284 56.5151 248.284 48.4545Z" fill="#6E9EE7"/>
<path d="M278.148 95V1.90909H309.602C316.905 1.90909 322.875 3.22727 327.511 5.86363C332.178 8.4697 335.633 12 337.875 16.4545C340.117 20.9091 341.239 25.8788 341.239 31.3636C341.239 36.8485 340.117 41.8333 337.875 46.3182C335.663 50.803 332.239 54.3788 327.602 57.0455C322.966 59.6818 317.027 61 309.784 61H287.239V51H309.42C314.42 51 318.436 50.1364 321.466 48.4091C324.496 46.6818 326.693 44.3485 328.057 41.4091C329.451 38.4394 330.148 35.0909 330.148 31.3636C330.148 27.6364 329.451 24.303 328.057 21.3636C326.693 18.4242 324.481 16.1212 321.42 14.4545C318.36 12.7576 314.299 11.9091 309.239 11.9091H289.42V95H278.148ZM353.716 95H341.898L376.08 1.90909H387.716L421.898 95H410.08L382.261 16.6364H381.534L353.716 95ZM358.08 58.6364H405.716V68.6364H358.08V58.6364ZM418.898 1.90909H431.807L457.625 45.3636H458.716L484.534 1.90909H497.443L463.807 56.6364V95H452.534V56.6364L418.898 1.90909Z" fill="black"/>
</svg>
